<svg xmlns="http://www.w3.org/2000/svg" width="70" height="19" fill="none"><g clip-path="url(#a)"><path fill="#133F40" d="M10.346 11.48H7.283l1.531-5.74 1.532 5.74Zm.896 3.353h3.24L11.105 4.167H6.523L3.148 14.833h3.24l3.989-3.27.864 3.27ZM16.814 4.5v10c0 .82-.295 1.524-.885 2.115-.59.59-1.295.885-2.114.885h-10c-.82 0-1.525-.295-2.115-.885-.59-.59-.886-1.296-.886-2.115v-10c0-.82.296-1.524.886-2.115.59-.59 1.295-.885 2.114-.885h10c.82 0 1.525.295 2.115.885.59.59.885 1.296.885 2.115Z"/></g><path fill="#133F40" d="M23.905 15h-3.943V3.364h4.023c1.155 0 2.148.233 2.977.699a4.672 4.672 0 0 1 1.92 1.994c.448.867.671 1.905.671 3.113 0 1.213-.225 2.254-.676 3.126a4.673 4.673 0 0 1-1.938 2.005c-.84.466-1.852.699-3.034.699Zm-1.835-1.824h1.733c.81 0 1.487-.148 2.028-.443.542-.3.95-.744 1.222-1.335.273-.595.41-1.337.41-2.228 0-.89-.137-1.628-.41-2.215-.273-.591-.676-1.033-1.21-1.324-.53-.296-1.19-.444-1.977-.444H22.07v7.99ZM38.363 8.58l-1.875.204a1.506 1.506 0 0 0-.279-.534 1.382 1.382 0 0 0-.522-.403 1.904 1.904 0 0 0-.807-.154c-.428 0-.788.093-1.08.279-.288.185-.43.426-.426.721a.755.755 0 0 0 .279.62c.193.159.51.29.954.392l1.489.318c.826.178 1.44.46 1.84.846.406.387.61.892.614 1.517a2.372 2.372 0 0 1-.483 1.455c-.314.417-.752.742-1.312.977s-1.205.353-1.932.353c-1.068 0-1.928-.224-2.58-.671-.651-.45-1.04-1.078-1.164-1.88l2.005-.194c.091.394.284.691.58.892.295.2.68.301 1.153.301.489 0 .881-.1 1.176-.3.3-.202.45-.45.45-.745a.775.775 0 0 0-.29-.62c-.19-.162-.485-.287-.887-.375l-1.488-.312c-.838-.174-1.457-.468-1.858-.88-.402-.417-.6-.944-.597-1.58-.004-.538.142-1.004.438-1.398.299-.398.713-.704 1.244-.92.534-.22 1.15-.33 1.846-.33 1.023 0 1.828.218 2.415.654.591.435.957 1.024 1.097 1.767Zm1.883 9.693v-12h2.023v1.443h.12c.105-.212.255-.438.448-.676.193-.243.455-.45.784-.62.33-.174.75-.26 1.262-.26.674 0 1.282.171 1.823.516.546.341.978.847 1.296 1.517.322.667.483 1.485.483 2.455 0 .958-.157 1.773-.472 2.443-.314.67-.742 1.182-1.284 1.534a3.302 3.302 0 0 1-1.84.528c-.5 0-.916-.083-1.245-.25a2.532 2.532 0 0 1-.795-.602 3.905 3.905 0 0 1-.46-.676h-.086v4.648h-2.057Zm2.017-7.637c0 .565.08 1.06.239 1.483.163.425.396.756.699.995.307.234.678.352 1.114.352.454 0 .835-.121 1.142-.364.306-.246.537-.581.693-1.005.159-.428.238-.915.238-1.46a4.15 4.15 0 0 0-.233-1.444c-.155-.42-.386-.75-.693-.988-.307-.24-.69-.358-1.148-.358-.439 0-.812.115-1.119.346-.307.231-.54.555-.699.972-.155.416-.233.907-.233 1.471ZM50.246 15V6.273h2.057V15h-2.057Zm1.034-9.966a1.2 1.2 0 0 1-.84-.324 1.044 1.044 0 0 1-.353-.79c0-.31.118-.573.352-.79.235-.219.516-.329.841-.329.33 0 .61.11.841.33.235.216.352.479.352.79 0 .306-.117.57-.352.79a1.187 1.187 0 0 1-.84.323ZM54.418 15V6.273h1.995v1.454h.09c.16-.504.432-.892.819-1.165.39-.276.835-.414 1.335-.414.113 0 .24.005.38.017.144.007.264.02.358.04v1.892a2.163 2.163 0 0 0-.414-.08 3.815 3.815 0 0 0-.54-.04c-.375 0-.712.082-1.012.245-.295.159-.528.38-.698.664-.17.284-.256.612-.256.983V15h-2.057Zm9.848.17c-.875 0-1.63-.181-2.267-.545a3.694 3.694 0 0 1-1.46-1.557c-.341-.674-.511-1.468-.511-2.38 0-.898.17-1.686.51-2.364a3.867 3.867 0 0 1 1.444-1.591c.617-.383 1.343-.574 2.176-.574a4.41 4.41 0 0 1 1.523.261c.481.17.905.436 1.273.796.37.36.663.818.875 1.375.212.553.318 1.212.318 1.977v.63h-7.154V9.813h5.182a2.212 2.212 0 0 0-.255-1.05 1.86 1.86 0 0 0-.7-.734 1.965 1.965 0 0 0-1.033-.267c-.42 0-.79.103-1.108.307-.319.2-.567.466-.745.796a2.29 2.29 0 0 0-.267 1.073v1.21c0 .508.093.944.279 1.307.185.36.445.637.778.83.333.19.724.284 1.17.284.3 0 .57-.041.813-.125.243-.087.453-.214.63-.38.179-.167.313-.374.404-.62l1.92.216c-.12.508-.352.95-.693 1.33a3.379 3.379 0 0 1-1.295.875c-.526.204-1.129.306-1.807.306Z"/><defs><clipPath id="a"><path fill="#fff" d="M.814 1.5h16v16h-16z"/></clipPath></defs></svg>