<svg xmlns="http://www.w3.org/2000/svg" width="64" height="64" fill="none"><rect width="64" height="64" fill="#000" rx="32"/><g clip-path="url(#a)"><path fill="#fff" d="M35.275 36.087h-5.55L32.5 25.684l2.775 10.403Zm1.624 6.08h5.872l-6.117-19.334h-8.308L22.23 42.167h5.872l7.231-5.929 1.567 5.929ZM47 23.437v18.125c0 1.486-.535 2.763-1.605 3.833-1.07 1.07-2.347 1.605-3.833 1.605H23.439c-1.486 0-2.763-.535-3.833-1.605-1.07-1.07-1.605-2.347-1.605-3.833V23.439c0-1.486.535-2.763 1.605-3.833 1.07-1.07 2.347-1.605 3.832-1.605h18.125c1.486 0 2.763.535 3.833 1.605 1.07 1.07 1.605 2.347 1.605 3.832Z"/></g><defs><clipPath id="a"><path fill="#fff" d="M18 18h29v29H18z"/></clipPath></defs></svg>