<svg xmlns="http://www.w3.org/2000/svg" width="76" height="20" fill="none"><path fill="#394149" d="M25.99 14.347a1.494 1.494 0 0 1-.941-.27.88.88 0 0 1-.355-.739V8.112a.147.147 0 0 1 .163-.164h.947c.107 0 .158.057.158.164v4.82c0 .214.096.322.293.322a.812.812 0 0 0 .248-.028c.113 0 .175.033.18.135l.085.704a.146.146 0 0 1-.135.175 2.124 2.124 0 0 1-.643.107Zm5.328-.603a2.656 2.656 0 0 1-3.383 0 2.255 2.255 0 0 1 0-3.174 2.667 2.667 0 0 1 3.383 0 2.289 2.289 0 0 1 0 3.168v.006ZM28.826 13a1.2 1.2 0 0 0 1.612 0 1.262 1.262 0 0 0 0-1.658 1.201 1.201 0 0 0-1.612 0 1.263 1.263 0 0 0 0 1.658Zm8.344-2.892c.108 0 .158.056.158.163v4.042a1.838 1.838 0 0 1-.625 1.45 2.368 2.368 0 0 1-1.641.563 2.638 2.638 0 0 1-1.528-.423 1.69 1.69 0 0 1-.739-1.127c0-.113 0-.164.153-.164h.947a.209.209 0 0 1 .186.13.739.739 0 0 0 .344.4c.195.1.412.151.631.147a.998.998 0 0 0 .728-.26.956.956 0 0 0 .265-.704v-.355a1.89 1.89 0 0 1-1.173.366 2.188 2.188 0 0 1-1.601-.614 2.255 2.255 0 0 1 0-3.135 2.204 2.204 0 0 1 1.6-.609c.434-.011.858.126 1.202.389v-.09a.147.147 0 0 1 .158-.164l.936-.005Zm-2.187 3.224a.992.992 0 0 0 .772-.332 1.381 1.381 0 0 0 0-1.691.986.986 0 0 0-.766-.327 1.014 1.014 0 0 0-.784.332 1.196 1.196 0 0 0-.304.846c-.01.308.096.608.298.84a1.02 1.02 0 0 0 .784.332Zm7.211.412a2.666 2.666 0 0 1-3.383 0 2.295 2.295 0 0 1 0-3.174 2.672 2.672 0 0 1 3.383 0 2.289 2.289 0 0 1 0 3.169v.005ZM39.696 13a1.127 1.127 0 0 0 .812.31 1.126 1.126 0 0 0 .806-.31 1.28 1.28 0 0 0 0-1.657 1.127 1.127 0 0 0-.806-.31 1.126 1.126 0 0 0-.812.31 1.28 1.28 0 0 0 0 1.657Zm5.17-3.852a.817.817 0 0 1-1.077 0 .682.682 0 0 1 0-.992.834.834 0 0 1 1.077 0 .682.682 0 0 1 0 .992Zm.118 5.198a1.516 1.516 0 0 1-.941-.27.89.89 0 0 1-.35-.739V10.27a.146.146 0 0 1 .164-.163h.947c.107 0 .158.056.158.163v2.661c0 .215.096.322.287.322a.872.872 0 0 0 .254-.029c.113 0 .175.034.18.136l.085.705a.148.148 0 0 1-.075.158.145.145 0 0 1-.06.016c-.21.07-.428.105-.649.107Zm4.269-4.376a2.212 2.212 0 0 1 1.612.61 2.311 2.311 0 0 1 0 3.151 2.193 2.193 0 0 1-1.612.615 1.94 1.94 0 0 1-1.179-.367v2.036c0 .107-.056.158-.163.158h-.947a.136.136 0 0 1-.158-.158v-4.623a.294.294 0 0 0-.333-.333h-.186c-.124 0-.186-.045-.186-.135v-.666a.18.18 0 0 1 .13-.186c.195-.07.401-.105.609-.101a1.043 1.043 0 0 1 1.02.564 1.899 1.899 0 0 1 1.393-.564Zm-.88 3.028a1.076 1.076 0 0 0 1.556 0c.212-.236.323-.545.31-.862a1.201 1.201 0 0 0-.31-.863 1.077 1.077 0 0 0-1.556 0 1.25 1.25 0 0 0-.299.863c-.011.315.096.622.3.862Zm5.773 1.35a2.72 2.72 0 0 1-1.449-.35 1.376 1.376 0 0 1-.654-.998c0-.113.04-.169.163-.169h.83a.213.213 0 0 1 .185.124c.119.305.429.457.925.457a1.05 1.05 0 0 0 .502-.102.327.327 0 0 0 .191-.276c0-.147-.09-.248-.27-.316a3.054 3.054 0 0 0-.66-.14 6.27 6.27 0 0 1-.79-.141 1.297 1.297 0 0 1-.659-.378 1.206 1.206 0 0 1 .243-1.748 2.324 2.324 0 0 1 1.364-.36c.466-.017.927.099 1.33.332a1.257 1.257 0 0 1 .62.885c0 .113-.05.17-.152.17h-.834a.175.175 0 0 1-.17-.102.564.564 0 0 0-.292-.3.993.993 0 0 0-.485-.112.981.981 0 0 0-.48.096.282.282 0 0 0-.18.26.361.361 0 0 0 .27.332c.217.082.442.138.672.169.264.035.525.084.784.147.252.057.482.188.66.377a1.066 1.066 0 0 1 .275.773 1.128 1.128 0 0 1-.524.98 2.46 2.46 0 0 1-1.415.39Zm7.899-.283a.154.154 0 0 1-.028.115.148.148 0 0 1-.102.06c-.206.067-.42.103-.637.107a1.25 1.25 0 0 1-1.127-.49 2.04 2.04 0 0 1-1.438.49 1.745 1.745 0 0 1-1.32-.513 1.85 1.85 0 0 1-.501-1.359v-2.204c0-.107.05-.164.158-.164h.947c.107 0 .158.057.158.164v2.035a.998.998 0 0 0 .242.694.849.849 0 0 0 .648.265.934.934 0 0 0 .677-.248.902.902 0 0 0 .254-.671V10.27c0-.107.05-.164.158-.164h.958c.107 0 .158.057.158.164v2.655c0 .22.096.327.282.327a.89.89 0 0 0 .26-.028.145.145 0 0 1 .125.023.148.148 0 0 1 .06.113l.068.704Zm8.959-.001a.14.14 0 0 1-.13.175c-.21.068-.428.104-.648.107a1.505 1.505 0 0 1-.942-.271.88.88 0 0 1-.378-.739v-1.324a.998.998 0 0 0-.237-.694.802.802 0 0 0-.631-.265.709.709 0 0 0-.564.248 1.003 1.003 0 0 0-.214.665v2.08c0 .108-.05.164-.158.164h-.953a.146.146 0 0 1-.163-.163v-2.035a1.044 1.044 0 0 0-.22-.694.733.733 0 0 0-.564-.265.818.818 0 0 0-.62.248.931.931 0 0 0-.231.665v2.08a.145.145 0 0 1-.042.123.147.147 0 0 1-.122.041h-.919c-.107 0-.158-.056-.158-.163V11.39a.287.287 0 0 0-.011-.134.292.292 0 0 0-.32-.198h-.187c-.124 0-.186-.045-.186-.135v-.666a.181.181 0 0 1 .13-.186c.194-.07.4-.105.608-.101a1.06 1.06 0 0 1 1.004.518 1.904 1.904 0 0 1 1.432-.518 1.619 1.619 0 0 1 1.336.597 1.862 1.862 0 0 1 1.477-.597 1.781 1.781 0 0 1 1.336.513 1.838 1.838 0 0 1 .502 1.358v1.088c0 .215.096.322.276.322a.843.843 0 0 0 .26-.028c.116 0 .178.045.186.135l.05.705ZM4.893 9.374a7.718 7.718 0 0 1 14.98 0h-.676A5.463 5.463 0 0 0 16 10.35c-.054.039-.11.075-.17.107h-.078a1.6 1.6 0 0 1-.17-.107 5.734 5.734 0 0 0-6.398 0c-.054.039-.11.075-.17.107h-.078a1.602 1.602 0 0 1-.17-.107 5.463 5.463 0 0 0-3.196-.976h-.677ZM17.98 12.91a1.9 1.9 0 0 1 1.218-.4h.907V10.7h-.907a3.598 3.598 0 0 0-2.16.688 2.053 2.053 0 0 1-2.435 0 3.834 3.834 0 0 0-4.38 0 2.053 2.053 0 0 1-2.436 0 3.597 3.597 0 0 0-2.188-.688h-.936v1.81h.908a1.9 1.9 0 0 1 1.218.4 3.822 3.822 0 0 0 4.375 0 1.91 1.91 0 0 1 1.217-.4 1.89 1.89 0 0 1 1.218.4 3.834 3.834 0 0 0 4.38 0Zm0 3.236a1.9 1.9 0 0 1 1.218-.4h.907v-1.81h-.907a3.598 3.598 0 0 0-2.16.688 2.052 2.052 0 0 1-2.435 0 3.834 3.834 0 0 0-4.38 0 2.052 2.052 0 0 1-2.436 0 3.598 3.598 0 0 0-2.188-.688h-.936v1.81h.908a1.9 1.9 0 0 1 1.218.4 3.823 3.823 0 0 0 4.375 0 1.91 1.91 0 0 1 1.217-.4 1.9 1.9 0 0 1 1.218.4 3.834 3.834 0 0 0 4.38 0Z"/></svg>