<svg xmlns="http://www.w3.org/2000/svg" width="57" height="30" fill="none"><path fill="#394149" d="M1.835 17.268h1.598v7.831H1.835v-7.831Zm2.525 5.149a2.843 2.843 0 1 1 2.842 2.837 2.81 2.81 0 0 1-2.843-2.837Zm4.078 0a1.235 1.235 0 1 0-1.236 1.267 1.202 1.202 0 0 0 1.236-1.267Z"/><path fill="#394149" d="M16.466 19.733v5.1c0 1.805-1.411 2.567-2.838 2.567a2.74 2.74 0 0 1-2.54-1.3l1.374-.793a1.225 1.225 0 0 0 1.198.676 1.063 1.063 0 0 0 1.235-1.15v-.495a1.896 1.896 0 0 1-1.565.698 2.726 2.726 0 1 1 0-5.452 1.91 1.91 0 0 1 1.565.697v-.532l1.57-.016Zm-1.57 2.577a1.3 1.3 0 1 0-1.3 1.246 1.216 1.216 0 0 0 1.3-1.246Zm2.491.107a2.844 2.844 0 1 1 2.843 2.837 2.811 2.811 0 0 1-2.843-2.837Zm4.078 0a1.235 1.235 0 1 0-1.235 1.267 1.201 1.201 0 0 0 1.224-1.267h.011Zm2.348-4.122a.969.969 0 1 1 1.937 0 .969.969 0 0 1-1.937 0Zm.165 1.438h1.597v5.366h-1.597v-5.366Zm8.561 2.682a2.694 2.694 0 0 1-2.561 2.837 2.038 2.038 0 0 1-1.597-.654v2.662h-1.597v-7.53h1.597v.506a2.038 2.038 0 0 1 1.597-.655 2.693 2.693 0 0 1 2.56 2.833Zm-1.597 0a1.278 1.278 0 1 0-1.31 1.31 1.225 1.225 0 0 0 1.299-1.31h.01Zm6.569 1.075c0 1.235-1.065 1.762-2.236 1.762a2.354 2.354 0 0 1-2.305-1.278l1.395-.793a.884.884 0 0 0 .91.633c.389 0 .58-.122.58-.335 0-.591-2.662-.277-2.662-2.13 0-1.171.99-1.762 2.13-1.762a2.358 2.358 0 0 1 2.097 1.15l-1.4.735a.793.793 0 0 0-.724-.474c-.277 0-.447.106-.447.303.021.613 2.662.203 2.662 2.189Zm5.878-3.758V25.1H41.79v-.5a1.836 1.836 0 0 1-1.533.654c-1.065 0-2.007-.772-2.007-2.225v-3.296h1.597v3.062a.885.885 0 0 0 .964.974c.585 0 .995-.34.995-1.102v-2.934h1.582Zm9.231 2.077v3.29h-1.597v-3.152c0-.532-.26-.884-.772-.884-.51 0-.84.378-.84 1.012v3.024h-1.598v-3.152c0-.532-.256-.884-.772-.884s-.836.378-.836 1.012v3.024h-1.597v-5.367h1.597v.496a1.65 1.65 0 0 1 1.438-.645 1.597 1.597 0 0 1 1.405.708 1.769 1.769 0 0 1 1.555-.708c1.213 0 2.017.884 2.017 2.226Zm1.364-2.109a1.193 1.193 0 1 0 0-2.386 1.193 1.193 0 0 0 0 2.386ZM19.91 13.205a5.585 5.585 0 1 0 0-11.17 5.585 5.585 0 0 0 0 11.17Zm12.485 0a5.585 5.585 0 1 0 0-11.17 5.585 5.585 0 0 0 0 11.17ZM13.01 2.035H1.848V13.2H13.01V2.035Z"/></svg>