<svg xmlns="http://www.w3.org/2000/svg" width="75" height="24" fill="none"><path fill="#394149" d="M13.097 7.148h1.127v7.848h3.383v1.127h-4.51V7.148Zm8.022 0a3.383 3.383 0 1 1 0 6.765 3.383 3.383 0 0 1 0-6.765Zm0 5.637a2.255 2.255 0 1 0-2.255-2.255 2.255 2.255 0 0 0 2.255 2.244v.011Zm-2.255 2.222h4.51v1.127h-4.51v-1.127Zm14.433 1.127H32.17v-.806a4.335 4.335 0 0 1-2.48.784 4.51 4.51 0 1 1 3.382-7.46l-.829.74a3.381 3.381 0 0 0-5.357 4.099 3.383 3.383 0 0 0 2.843 1.538 3.253 3.253 0 0 0 2.469-1.127h-3.044v-1.128h4.155l-.012 3.36Zm4.15-8.964a3.383 3.383 0 1 1-3.383 3.383 3.382 3.382 0 0 1 3.394-3.405l-.011.022Zm0 5.638a2.255 2.255 0 1 0-2.255-2.255 2.255 2.255 0 0 0 2.266 2.221l-.011.034Zm-2.255 2.221h4.51v1.128h-4.51v-1.128Zm6.839-7.881h1.127v8.964h-1.127V7.148Zm2.689 0h1.127a.832.832 0 0 1 .175 0 3.383 3.383 0 1 1 0 6.726h-.175v2.255H44.72V7.148Zm1.127 1.127v4.46h.175a2.254 2.254 0 1 0 0-4.471.828.828 0 0 0-.18.04l.005-.029Zm8.125-.48-.835.66a1.094 1.094 0 0 0-1.877.638v.09c0 .496.344.829 1.015.874 2.582.157 3.766 1.37 3.766 2.97v.102a3.327 3.327 0 0 1-5.734 1.928l.862-.665a2.031 2.031 0 0 0 1.58.643 2.108 2.108 0 0 0 2.21-1.906v-.079c0-1.505-1.478-1.781-2.758-1.905-1.184-.113-2.035-.851-2.035-1.917v-.045a2.17 2.17 0 0 1 2.216-2.007 2.109 2.109 0 0 1 1.584.648l.006-.028Zm6.483 7.172c1.404 0 2.515-1.516 2.515-3.382v-4.51h1.127v4.51c0 2.48-1.623 4.482-3.62 4.482-1.995 0-3.619-2.002-3.619-4.482v-4.51h1.128v4.51c-.045 1.894 1.065 3.41 2.464 3.41l.005-.028Zm12.296 1.128h-1.127v-5.582l-2.6 3.383-2.598-3.383v5.599h-1.128V7.148l3.721 4.899 3.721-4.9.011 8.948ZM7.684 5.801a3.067 3.067 0 1 0-6.134 0v9.275l2.526 1.81v4.408H5.16v-4.409l2.525-1.81V5.802Zm-1.082 5.187-1.443 1.444v-1.354l1.443-1.443v1.353ZM2.655 9.635 4.1 11.08v1.353l-1.444-1.444V9.635Zm3.947-1.533-1.985 1.984-1.984-2.03V6.704l1.984 1.985 1.985-1.985v1.399ZM4.617 3.817a1.996 1.996 0 0 1 1.917 1.471L4.617 7.2 2.7 5.288a1.996 1.996 0 0 1 1.917-1.494v.023ZM2.633 14.529v-2.03l1.443 1.444v1.612l-1.443-1.026Zm2.526 1.032v-1.618l1.443-1.444v2.024l-1.443 1.038Z"/></svg>