<svg xmlns="http://www.w3.org/2000/svg" width="123" height="24" fill="none"><g fill="#000" clip-path="url(#a)"><path d="M69.076 17.372h2.63V7.455h-2.63v9.917Zm0-11.463h2.63V3.551h-2.63v2.358ZM73.4 20.62h2.628v-4.37h.039c.56.85 1.469 1.411 2.86 1.411 2.552 0 4.292-2.03 4.292-5.238 0-3.093-1.682-5.238-4.31-5.238-1.354 0-2.282.637-2.92 1.507h-.058V7.456H73.4V20.62Zm4.967-5.142c-1.566 0-2.397-1.179-2.397-2.977 0-1.778.657-3.19 2.3-3.19 1.624 0 2.281 1.315 2.281 3.19s-.85 2.977-2.184 2.977Zm10.096 2.184c2.475 0 4.175-1.198 4.175-3.19 0-2.319-1.836-2.782-3.498-3.13-1.412-.29-2.726-.368-2.726-1.218 0-.715.677-1.102 1.701-1.102 1.122 0 1.798.387 1.914 1.45h2.377c-.193-1.991-1.643-3.286-4.252-3.286-2.262 0-4.04 1.024-4.04 3.17 0 2.165 1.74 2.648 3.518 2.996 1.353.27 2.61.367 2.61 1.314 0 .696-.657 1.14-1.817 1.14-1.18 0-1.992-.502-2.165-1.642h-2.436c.155 2.107 1.76 3.498 4.64 3.498Zm14.156-.289V7.457H99.99v5.722c0 1.314-.754 2.242-1.99 2.242-1.122 0-1.644-.638-1.644-1.798V7.457h-2.61v6.61c0 2.166 1.238 3.577 3.441 3.577 1.392 0 2.165-.522 2.842-1.43h.058v1.16h2.532Zm1.701-.001h2.629v-5.76c0-1.314.715-2.165 1.779-2.165.966 0 1.526.58 1.526 1.701v6.224h2.629v-5.76c0-1.314.677-2.165 1.778-2.165.967 0 1.528.58 1.528 1.701v6.224h2.629v-6.668c0-2.165-1.18-3.518-3.267-3.518-1.257 0-2.301.657-2.977 1.74h-.039c-.483-1.045-1.488-1.74-2.745-1.74-1.372 0-2.338.695-2.88 1.604h-.058V7.456h-2.532v9.916Zm-103.762 0h2.629V3.55H.558v13.82Zm9.057.29c3.073 0 5.18-2.28 5.18-5.238 0-2.958-2.107-5.238-5.18-5.238-3.073 0-5.18 2.28-5.18 5.238 0 2.958 2.107 5.238 5.18 5.238Zm0-2.01c-1.624 0-2.513-1.295-2.513-3.228 0-1.933.89-3.247 2.513-3.247 1.604 0 2.513 1.314 2.513 3.247 0 1.933-.909 3.228-2.513 3.228Zm10.771 5.103c1.47 0 2.745-.348 3.576-1.12.735-.678 1.18-1.625 1.18-3.016V7.456h-2.533V8.5h-.039c-.599-.831-1.508-1.314-2.745-1.314-2.512 0-4.29 1.894-4.29 4.851 0 2.996 2.164 4.736 4.368 4.736 1.256 0 2.01-.502 2.59-1.16h.058v1.083c0 1.353-.715 2.068-2.204 2.068-1.218 0-1.778-.483-1.99-1.102h-2.61c.27 1.933 1.933 3.093 4.639 3.093Zm-.039-6.089c-1.353 0-2.242-.986-2.242-2.667 0-1.663.89-2.706 2.223-2.706 1.585 0 2.358 1.237 2.358 2.686 0 1.47-.676 2.687-2.339 2.687Zm11.184 2.996c3.074 0 5.18-2.28 5.18-5.238 0-2.958-2.106-5.238-5.18-5.238-3.073 0-5.18 2.28-5.18 5.238 0 2.958 2.107 5.238 5.18 5.238Zm0-2.01c-1.624 0-2.513-1.295-2.513-3.228 0-1.933.89-3.247 2.513-3.247 1.604 0 2.513 1.314 2.513 3.247 0 1.933-.909 3.228-2.513 3.228Zm88.241-9.825c0-.445.361-.806.806-.806h1.61a.806.806 0 1 1 0 1.611h-1.61a.806.806 0 0 1-.806-.805Z"/><path fill-rule="evenodd" d="M52.654.727c6.227 0 11.276 5.048 11.276 11.275 0 6.228-5.048 11.276-11.276 11.276-6.227 0-11.276-5.048-11.276-11.276 0-6.227 5.049-11.275 11.276-11.275Zm-.407.843c-1.287.181-2.512 1.215-3.462 2.944a11.718 11.718 0 0 0-.742 1.653 18.863 18.863 0 0 1 4.204-.546v-4.05ZM47.09 6.438c.27-.846.6-1.625.98-2.317.472-.857 1.031-1.597 1.661-2.166a10.483 10.483 0 0 0-7.124 7.125c.569-.63 1.309-1.19 2.166-1.661a12.92 12.92 0 0 1 2.317-.98Zm-.27.953a18.868 18.868 0 0 0-.547 4.204h-4.05c.18-1.287 1.214-2.511 2.943-3.462a11.74 11.74 0 0 1 1.653-.742Zm.268 4.204c.034-1.627.268-3.154.656-4.503a17.746 17.746 0 0 1 4.503-.655v1.76a6 6 0 0 1-3.398 3.398h-1.76Zm-.815.815h-4.05c.18 1.286 1.214 2.511 2.943 3.462.501.276 1.055.525 1.653.742a18.868 18.868 0 0 1-.546-4.204Zm1.47 4.503a17.749 17.749 0 0 1-.655-4.503h1.76a6 6 0 0 1 3.399 3.397v1.761a17.75 17.75 0 0 1-4.503-.655Zm-.653.654c-.846-.27-1.625-.6-2.317-.98-.857-.472-1.597-1.031-2.166-1.662a10.483 10.483 0 0 0 7.124 7.124c-.63-.568-1.19-1.308-1.66-2.165a13.025 13.025 0 0 1-.981-2.317Zm5.157 4.867c-1.287-.18-2.512-1.214-3.462-2.943a11.719 11.719 0 0 1-.742-1.654c1.293.325 2.713.517 4.204.546v4.052Zm3.33-.385c.63-.568 1.19-1.308 1.661-2.165.38-.692.711-1.471.98-2.317.847-.27 1.625-.6 2.318-.98.857-.472 1.597-1.031 2.165-1.662a10.483 10.483 0 0 1-7.124 7.124Zm1.689-4.212a11.777 11.777 0 0 1-.742 1.654c-.95 1.729-2.176 2.762-3.462 2.944v-4.052c1.49-.03 2.91-.22 4.204-.546Zm1.223-1.223a11.726 11.726 0 0 0 1.654-.742c1.729-.95 2.762-2.176 2.943-3.462h-4.05c-.03 1.49-.222 2.91-.547 4.204Zm-.269-4.204c-.034 1.627-.268 3.154-.655 4.503-1.35.387-2.877.622-4.503.655v-1.76a6 6 0 0 1 3.398-3.398h1.76Zm.815-.815h4.051c-.18-1.287-1.214-2.511-2.943-3.462a11.725 11.725 0 0 0-1.654-.742c.325 1.293.517 2.713.546 4.204Zm-1.47-4.503c.387 1.35.621 2.876.655 4.503h-1.76a5.999 5.999 0 0 1-3.398-3.4V6.438a17.7 17.7 0 0 1 4.503.655Zm.654-.654c.846.27 1.624.6 2.317.98.857.472 1.597 1.031 2.165 1.662a10.483 10.483 0 0 0-7.124-7.125c.63.569 1.19 1.309 1.661 2.166.38.692.711 1.47.98 2.317ZM53.061 1.57c1.286.181 2.511 1.215 3.462 2.944.275.501.525 1.055.742 1.653a18.869 18.869 0 0 0-4.204-.546v-4.05Z" clip-rule="evenodd"/></g><defs><clipPath id="a"><path fill="#fff" d="M.093.727H123v22.552H.093z"/></clipPath></defs></svg>