<svg xmlns="http://www.w3.org/2000/svg" width="40" height="40" fill="none"><g clip-path="url(#a)"><rect width="40" height="40" fill="#F7F7F7" rx="20"/><path fill="#000" d="M13.152 23.8a15.466 15.466 0 0 0-2.048-2.048 11.103 11.103 0 0 0-2.176-1.408v-.576c1.472-.747 2.88-1.899 4.224-3.456h1.12a19.622 19.622 0 0 1-1.024 1.92c-.341.533-.672.981-.992 1.344v.96c.32.341.65.79.992 1.344a15.67 15.67 0 0 1 1.024 1.92h-1.12Zm-1.056-3.072v-1.344h18.976v1.344H12.096Z"/></g><defs><clipPath id="a"><rect width="40" height="40" fill="#fff" rx="20"/></clipPath></defs></svg>